<svg width="32" height="32" viewBox="0 0 32 32" fill="none" xmlns="http://www.w3.org/2000/svg">
<rect width="32" height="32" rx="16" fill="#302222"/>
<path d="M18.9063 12V13.5625H12.6875V12H18.9063ZM14.5 9.125H16.3438V20.5625C16.3438 21.0833 16.4193 21.474 16.5703 21.7344C16.7266 21.9896 16.9245 22.1615 17.1641 22.25C17.4089 22.3333 17.6667 22.375 17.9375 22.375C18.1406 22.375 18.3073 22.3646 18.4375 22.3437C18.5677 22.3177 18.6719 22.2969 18.75 22.2812L19.125 23.9375C19 23.9844 18.8255 24.0313 18.6016 24.0781C18.3776 24.1302 18.0938 24.1563 17.75 24.1563C17.2292 24.1563 16.7188 24.0443 16.2188 23.8203C15.724 23.5964 15.3125 23.2552 14.9844 22.7969C14.6615 22.3385 14.5 21.7604 14.5 21.0625V9.125Z" fill="white"/>
</svg>
